<svg xmlns="http://www.w3.org/2000/svg" xml:space="preserve" width="1500" height="1500" stroke="#000" data-id="lg_DYpvPmyYzPqcqB4ZSb" data-version="1"><path fill="#fff" stroke="transparent" d="M0 0h1500v1500H0z"/><g data-padding="20"><g transform="translate(-569.073 -579.463)scale(1.71898)"><path fill="#2d2d2d" stroke="transparent" d="M515.887 842.536q-4.24-2.02-8.84-7.53t-7.89-12.23q-3.28-6.72-3.79-12.48l9-12.53q2.02-.81 4.65-1.12 2.63-.3 5.15-.3h3.34q-4.45-25.37-6.17-44.62-1.72-19.26-3.03-33.51l-18.5-1.62q.71-9.09 3.29-18.19t10.36-14.45l71.96 6.06q8.7 4.04 19.16 11.22t17.74 15.36q.4 3.03.65 5.71.26 2.68.41 6.62.15 3.95.15 10.92 0 4.65-.56 13.04-.55 8.39-1.46 18.44-.91 10.06-2.08 20.02-1.16 9.95-2.37 17.94-1.21 7.98-2.43 12.03-.8 2.83-5.5 6.26-4.7 3.44-11.22 6.67-6.52 3.24-13.24 5.56-6.73 2.33-11.58 2.83-7.78-4.24-13.9-10.81-6.11-6.57-8.44-11.53-2.62 4.45-6.16 9.51-3.54 5.05-8.19 8.69t-10.51 4.04m27.49-42.15 1.72.31 27.39 8.28q.31-6.16.51-13.69t.2-14q0-9.91-.2-20.11-.2-10.21-.56-19.31-.35-9.1-.96-15.46l-24.46-5.16Zm115.82 42.15q-2.52 0-5.05-1.31-2.53-1.32-5.66-4.55l-1.97-1.97q-.96-.96-1.97-1.77-2.12-1.92-3.84-3.24-1.72-1.31-2.53-2.02-4.14-3.74-5-6.57t-.31-6.16q.56-3.34.56-8.59 0-10.01-.96-20.77-.96-10.77-2.38-19.61-1.41-8.85-2.72-13.19-1.22-4.15-1.22-5.46 0-3.03 3.34-6.82 3.33-3.79 7.58-7.13 4.24-3.33 6.77-4.95 3.03-1.92 7.73-4.15 4.7-2.22 9.66-3.84 4.95-1.61 8.59-1.61 1.41.1 3.33.7 1.92.61 4.55 2.33 8.09 5.36 13.19 8.08 5.1 2.73 9.25 4.3 4.14 1.57 9.1 3.39 1.51.6 2.22 1.61t1.41 5.66q.81 4.96.51 10.72t-2.02 9.09q-.61 1.12-5.11 6.22-4.49 5.1-11.27 12.33-6.77 7.23-14.3 14.86t-14.3 13.69h2.93q5.16-1.01 14.15-5.96 9-4.95 18.8-9.6l8.59 14.05q-3.03 4.04-8.89 9.5t-13.24 10.66q-7.38 5.21-15.06 8.64-7.68 3.44-14.46 3.44m5.36-44.17q2.33-3.43 6.42-9.3 4.09-5.86 8.39-12.88 4.29-7.03 7.22-13.9-5.45-1.21-19.6-5.76 0 2.12-.16 7.32-.15 5.21-.5 11.73t-.76 12.58q-.4 6.07-.91 9.91 0 .1-.05.15t-.05.15m145.36 44.26q-4.65.1-10.11-2.78t-9.6-7.33q-1.92-2.02-3.84-4.75-1.93-2.72-1.22-9.5.81-7.68 1.62-14.05.81-6.36 1.82-13.14l-1.52-.7q-2.12 5.35-5.1 12.53t-6.57 14.55q-3.59 7.38-7.33 13.45-3.74 6.06-7.28 9.2-2.83 2.22-5.66 2.42-2.73.1-5.45-1.41-2.73-1.52-5.77-3.64-2.42-1.82-5.56-3.44-3.13-1.62-5.45-3.64-2.33-2.02-2.43-4.65 0-2.12.2-7.78.21-5.66.1-9.7-.1-7.99-1.01-18.55t-2.52-21.12q-1.62-10.57-4.15-18.45-1.21-4.14-1.21-5.56 0-2.02 2.53-5.56 6.16-7.98 14-12.23 7.83-4.24 14.25-5.96t8.34-1.92q8.08 5.56 14.2 13.84 6.11 8.29 10.66 16.08-.1-9-.45-15.72-.36-6.72-.36-9.15 1.62-1.11 6.37-1.97t10.61-.86q17.69 0 28 12.23.2 1.92-.56 8.04-.75 6.11-2.32 14.7t-3.84 18.25q-2.28 9.65-4.95 18.85-2.68 9.19-5.72 16.27l17.49-9.3 8.59 12.23q-3.43 8.09-7.93 14.91t-9.76 11.02q-5.25 4.19-11.11 4.29m-49.03-37.7 3.04 1.42q2.83-2.73 6.06-7.63 3.24-4.91 6.37-10.42 3.13-5.5 5.66-10.36 2.53-4.85 3.74-7.47l.2-2.13v-5.96q-6.06-1.52-11.42-2.53t-10.21-2.12l.1 10.81q.2 9.2-.76 18.2-.96 8.99-2.78 18.19m113.51 37.61q-4.65 0-9.3-2.53-4.65-2.52-8.69-6.21t-7.08-7.23q-1.51-1.72-2.42-4.29-.91-2.58-.1-6.93l6.97-36.08q-1.82-9.5-3.54-20.87-1.71-11.37-3.18-22.64t-2.58-20.77q-1.11-9.51-1.61-15.62-.51-6.12-.41-7.03 4.85-6.16 13.75-10.46 8.89-4.29 17.89-4.39 4.34-.1 8.39 1.01 4.04 1.11 7.27 3.74-.5 15.97-1.66 33.55-1.17 17.59-3.09 39.98t-4.95 53.01l14.45-6.77 8.09 12.84q-1.92 5.86-6.16 12.28-4.25 6.42-9.96 10.91-5.71 4.5-12.08 4.5m62.45 0q-3.53 0-8.38-2.07-4.86-2.07-9.45-5.56-4.6-3.49-7.64-7.63-3.03-4.15-3.03-8.19 0-1.41.2-2.42.21-1.01 1.07-3.44.85-2.43 2.77-7.73 1.93-5.31 5.46-15.21l-13.24-52.66q3.03-3.74 8.24-7.08 5.2-3.33 11.52-5.46 6.32-2.12 12.59-2.12 4.65 0 8.89 1.36 4.25 1.37 7.78 4.5-.3 1.52-.91 7.18-.6 5.66-1.51 13.85-.91 8.18-2.07 17.48-1.17 9.3-2.63 18.09-1.47 8.8-3.09 15.47l-1.92 7.88 15.17-6.77 7.98 12.63q-2.12 4.96-6.11 11.53-4 6.57-9.51 11.47-5.5 4.9-12.18 4.9m-4.34-128.06q-4.85-.3-9.55-2.68-4.7-2.37-8.09-5.66-3.38-3.28-4.29-6.32 2.93-7.17 4.75-11.77t3.28-8.49q1.47-3.89 2.98-8.95 6.27 0 13.5 1.92 7.22 1.92 12.98 6.68 5.77 4.75 7.58 13.34-2.93 6.97-9.9 13.09-6.97 6.11-13.24 8.84m78.14 128.06q-4.65 0-10.36-2.32-5.71-2.33-10.97-6.17-5.25-3.84-8.69-8.49t-3.64-9.3q0-1.31.46-3.79.45-2.47 1.87-7.68 1.41-5.21 4.24-14.4l-5.05-36.19-9.71-.6q-1.51-4.15-1.87-9.61-.35-5.45-.15-8.28l11.32-3.95 6.17-36.69q2.42-1.31 7.83-1.76 5.41-.46 11.73.4 6.31.86 11.17 3.49l-1.12 28.4 22.44-4.55q4.15 6.97 4.25 13.44t-1.47 11.58q-1.57 5.1-2.68 8.03-4.65.41-11.17.81t-12.38.61l.2 53.46 21.84-17.99 12.83 14.25q-1.41 3.74-5.45 9.91-4.05 6.17-9.56 12.48-5.5 6.32-11.32 10.62-5.81 4.29-10.76 4.29"/><rect width="560" height="233.91" x="85.977" y="255.566" fill="none" stroke="none" rx="0" ry="0" transform="translate(401 400.88)"/></g><path fill="transparent" stroke="transparent" stroke-width="1.783" d="M250 541.444h1000v417.112H250z"/></g></svg>